<svg width="488" height="488" viewBox="0 0 488 488" fill="none" xmlns="http://www.w3.org/2000/svg">
<g clip-path="url(#clip0_552_7819)">
<mask id="mask0_552_7819" style="mask-type:alpha" maskUnits="userSpaceOnUse" x="208" y="24" width="72" height="28">
<rect x="208" y="24" width="72" height="28" fill="#D9D9D9"/>
</mask>
<g mask="url(#mask0_552_7819)">
<rect width="488" height="488" fill="url(#paint0_linear_552_7819)"/>
</g>
<rect x="32" y="312" width="424" height="136" fill="#F9F9F5"/>
<g filter="url(#filter0_d_552_7819)">
<path fill-rule="evenodd" clip-rule="evenodd" d="M464 304H456V320H464V448H456V456H320V464H168V456H32V448H24V320H32V304H24V32H32V24H208V40H216V48H272V40H280V24H456V32H464V304ZM288 32V48H280V56H208V48H200V32H40V40H32V296H40V328H32V440H40V448H176V456H312V448H448V440H456V328H448V296H456V40H448V32H288Z" fill="#FBB735"/>
</g>
<path d="M448 328H456V440H448V448H312V456H176V448H40V440H32V328H40V312H448V328ZM48 336H40V432H48V440H176V432H312V440H440V432H448V336H440V320H48V336Z" fill="#E0DAD2"/>
<path d="M448 328H447V329H448V328ZM456 328H457V327H456V328ZM456 440V441H457V440H456ZM448 440V439H447V440H448ZM448 448V449H449V448H448ZM312 448V447H311V448H312ZM312 456V457H313V456H312ZM176 456H175V457H176V456ZM176 448H177V447H176V448ZM40 448H39V449H40V448ZM40 440H41V439H40V440ZM32 440H31V441H32V440ZM32 328V327H31V328H32ZM40 328V329H41V328H40ZM40 312V311H39V312H40ZM448 312H449V311H448V312ZM48 336V337H49V336H48ZM40 336V335H39V336H40ZM40 432H39V433H40V432ZM48 432H49V431H48V432ZM48 440H47V441H48V440ZM176 440V441H177V440H176ZM176 432V431H175V432H176ZM312 432H313V431H312V432ZM312 440H311V441H312V440ZM440 440V441H441V440H440ZM440 432V431H439V432H440ZM448 432V433H449V432H448ZM448 336H449V335H448V336ZM440 336H439V337H440V336ZM440 320H441V319H440V320ZM48 320V319H47V320H48ZM448 328V329H456V328V327H448V328ZM456 328H455V440H456H457V328H456ZM456 440V439H448V440V441H456V440ZM448 440H447V448H448H449V440H448ZM448 448V447H312V448V449H448V448ZM312 448H311V456H312H313V448H312ZM312 456V455H176V456V457H312V456ZM176 456H177V448H176H175V456H176ZM176 448V447H40V448V449H176V448ZM40 448H41V440H40H39V448H40ZM40 440V439H32V440V441H40V440ZM32 440H33V328H32H31V440H32ZM32 328V329H40V328V327H32V328ZM40 328H41V312H40H39V328H40ZM40 312V313H448V312V311H40V312ZM448 312H447V328H448H449V312H448ZM48 336V335H40V336V337H48V336ZM40 336H39V432H40H41V336H40ZM40 432V433H48V432V431H40V432ZM48 432H47V440H48H49V432H48ZM48 440V441H176V440V439H48V440ZM176 440H177V432H176H175V440H176ZM176 432V433H312V432V431H176V432ZM312 432H311V440H312H313V432H312ZM312 440V441H440V440V439H312V440ZM440 440H441V432H440H439V440H440ZM440 432V433H448V432V431H440V432ZM448 432H449V336H448H447V432H448ZM448 336V335H440V336V337H448V336ZM440 336H441V320H440H439V336H440ZM440 320V319H48V320V321H440V320ZM48 320H47V336H48H49V320H48Z" fill="#B1A69D"/>
<path d="M113.6 328.8L126.974 284H361.025L374.4 328.8H113.6Z" fill="#F1E4D8"/>
<path d="M113.6 328.8L126.974 340H361.025L374.4 328.8H113.6Z" fill="#38312E"/>
<path d="M113.6 328.8L112.641 328.514L112.453 329.144L112.958 329.566L113.6 328.8ZM126.974 284V283H126.229L126.015 283.714L126.974 284ZM361.025 284L361.984 283.714L361.77 283H361.025V284ZM374.399 328.8L375.041 329.566L375.546 329.144L375.358 328.514L374.399 328.8ZM361.025 340V341H361.389L361.667 340.767L361.025 340ZM126.974 340L126.332 340.767L126.61 341H126.974V340ZM113.6 328.8L114.558 329.086L127.932 284.286L126.974 284L126.015 283.714L112.641 328.514L113.6 328.8ZM126.974 284V285H361.025V284V283H126.974V284ZM361.025 284L360.067 284.286L373.441 329.086L374.399 328.8L375.358 328.514L361.984 283.714L361.025 284ZM374.399 328.8L373.757 328.033L360.383 339.233L361.025 340L361.667 340.767L375.041 329.566L374.399 328.8ZM361.025 340V339H126.974V340V341H361.025V340ZM126.974 340L127.616 339.233L114.242 328.033L113.6 328.8L112.958 329.566L126.332 340.767L126.974 340Z" fill="black"/>
<path d="M40 448H176" stroke="url(#paint1_linear_552_7819)" stroke-width="2" stroke-linecap="square"/>
<path d="M448 448H312" stroke="url(#paint2_linear_552_7819)" stroke-width="2" stroke-linecap="square"/>
<path d="M40 448V440H32V328H40V296H32V40H40V32C48.6964 32 53.6911 32 60.5 32H62.3903L62.4001 68.4634L90.0001 82.2L117.6 68.4634V32H119.5C146.303 32 167.874 32 200 32V48H208V56H280V48H288V32H448V40H456V296H448V328H456V440H448V448" stroke="#61563B" stroke-width="2"/>
<path d="M243.999 15C247.181 15.0001 250.233 16.2645 252.483 18.5146C254.733 20.7648 255.997 23.8169 255.997 26.999C255.997 30.1812 254.734 33.2333 252.483 35.4834C250.359 37.6075 247.52 38.8505 244.532 38.9834V33.6592C248.687 33.4863 251.999 30.3011 251.999 26.3965V26.3184C251.997 26.1523 251.858 26.0168 251.681 26.0088C251.551 26.0028 251.42 26 251.288 26C249.543 26 247.931 26.531 246.63 27.4287C246.867 26.671 247 25.8434 247 24.9756C247 22.3106 245.767 20.0197 244 19C242.233 20.0198 241 22.3108 241 24.9766C241 25.8455 241.133 26.6742 241.371 27.4326C240.069 26.5333 238.457 26 236.71 26C236.593 25.9999 236.477 26.002 236.36 26.0068L236.249 26.0127C236.183 26.0161 236.12 26.043 236.074 26.0879C236.028 26.1328 236.001 26.1926 236 26.2549L235.999 26.3965C235.999 30.2448 239.217 33.3957 243.288 33.6504V38.9736C240.365 38.8003 237.597 37.5653 235.515 35.4834C233.265 33.2333 232 30.1812 232 26.999C232 23.8168 233.264 20.7649 235.515 18.5146C237.765 16.2644 240.817 15 243.999 15Z" fill="white"/>
</g>
<defs>
<filter id="filter0_d_552_7819" x="-8" y="-8" width="504" height="504" filterUnits="userSpaceOnUse" color-interpolation-filters="sRGB">
<feFlood flood-opacity="0" result="BackgroundImageFix"/>
<feColorMatrix in="SourceAlpha" type="matrix" values="0 0 0 0 0 0 0 0 0 0 0 0 0 0 0 0 0 0 127 0" result="hardAlpha"/>
<feOffset/>
<feGaussianBlur stdDeviation="16"/>
<feComposite in2="hardAlpha" operator="out"/>
<feColorMatrix type="matrix" values="0 0 0 0 0 0 0 0 0 0 0 0 0 0 0 0 0 0 0.25 0"/>
<feBlend mode="normal" in2="BackgroundImageFix" result="effect1_dropShadow_552_7819"/>
<feBlend mode="normal" in="SourceGraphic" in2="effect1_dropShadow_552_7819" result="shape"/>
</filter>
<linearGradient id="paint0_linear_552_7819" x1="244" y1="0" x2="244" y2="488" gradientUnits="userSpaceOnUse">
<stop stop-color="#FF7E0B"/>
<stop offset="1" stop-color="#D24E12"/>
</linearGradient>
<linearGradient id="paint1_linear_552_7819" x1="176" y1="448.5" x2="40" y2="448.5" gradientUnits="userSpaceOnUse">
<stop stop-color="#B1A69D"/>
<stop offset="1" stop-color="#61563B"/>
</linearGradient>
<linearGradient id="paint2_linear_552_7819" x1="312" y1="448.5" x2="448" y2="448.5" gradientUnits="userSpaceOnUse">
<stop stop-color="#B1A69D"/>
<stop offset="1" stop-color="#61563B"/>
</linearGradient>
<clipPath id="clip0_552_7819">
<rect width="488" height="488" fill="white"/>
</clipPath>
</defs>
</svg>
