<svg width="488" height="488" viewBox="0 0 488 488" fill="none" xmlns="http://www.w3.org/2000/svg">
<g clip-path="url(#clip0_552_7877)">
<mask id="mask0_552_7877" style="mask-type:alpha" maskUnits="userSpaceOnUse" x="208" y="24" width="72" height="28">
<rect x="208" y="24" width="72" height="28" fill="#D9D9D9"/>
</mask>
<g mask="url(#mask0_552_7877)">
<rect width="488" height="488" fill="url(#paint0_linear_552_7877)"/>
</g>
<rect x="32" y="312" width="424" height="136" fill="#F9F9F5"/>
<g filter="url(#filter0_d_552_7877)">
<path fill-rule="evenodd" clip-rule="evenodd" d="M464 304H456V320H464V448H456V456H320V464H168V456H32V448H24V320H32V304H24V32H32V24H208V40H216V48H272V40H280V24H456V32H464V304ZM288 32V48H280V56H208V48H200V32H40V40H32V296H40V328H32V440H40V448H176V456H312V448H448V440H456V328H448V296H456V40H448V32H288Z" fill="#72829A"/>
</g>
<path d="M448 328H456V440H448V448H312V456H176V448H40V440H32V328H40V312H448V328ZM48 336H40V432H48V440H176V432H312V440H440V432H448V336H440V320H48V336Z" fill="#E0DAD2"/>
<path d="M448 328H447V329H448V328ZM456 328H457V327H456V328ZM456 440V441H457V440H456ZM448 440V439H447V440H448ZM448 448V449H449V448H448ZM312 448V447H311V448H312ZM312 456V457H313V456H312ZM176 456H175V457H176V456ZM176 448H177V447H176V448ZM40 448H39V449H40V448ZM40 440H41V439H40V440ZM32 440H31V441H32V440ZM32 328V327H31V328H32ZM40 328V329H41V328H40ZM40 312V311H39V312H40ZM448 312H449V311H448V312ZM48 336V337H49V336H48ZM40 336V335H39V336H40ZM40 432H39V433H40V432ZM48 432H49V431H48V432ZM48 440H47V441H48V440ZM176 440V441H177V440H176ZM176 432V431H175V432H176ZM312 432H313V431H312V432ZM312 440H311V441H312V440ZM440 440V441H441V440H440ZM440 432V431H439V432H440ZM448 432V433H449V432H448ZM448 336H449V335H448V336ZM440 336H439V337H440V336ZM440 320H441V319H440V320ZM48 320V319H47V320H48ZM448 328V329H456V328V327H448V328ZM456 328H455V440H456H457V328H456ZM456 440V439H448V440V441H456V440ZM448 440H447V448H448H449V440H448ZM448 448V447H312V448V449H448V448ZM312 448H311V456H312H313V448H312ZM312 456V455H176V456V457H312V456ZM176 456H177V448H176H175V456H176ZM176 448V447H40V448V449H176V448ZM40 448H41V440H40H39V448H40ZM40 440V439H32V440V441H40V440ZM32 440H33V328H32H31V440H32ZM32 328V329H40V328V327H32V328ZM40 328H41V312H40H39V328H40ZM40 312V313H448V312V311H40V312ZM448 312H447V328H448H449V312H448ZM48 336V335H40V336V337H48V336ZM40 336H39V432H40H41V336H40ZM40 432V433H48V432V431H40V432ZM48 432H47V440H48H49V432H48ZM48 440V441H176V440V439H48V440ZM176 440H177V432H176H175V440H176ZM176 432V433H312V432V431H176V432ZM312 432H311V440H312H313V432H312ZM312 440V441H440V440V439H312V440ZM440 440H441V432H440H439V440H440ZM440 432V433H448V432V431H440V432ZM448 432H449V336H448H447V432H448ZM448 336V335H440V336V337H448V336ZM440 336H441V320H440H439V336H440ZM440 320V319H48V320V321H440V320ZM48 320H47V336H48H49V320H48Z" fill="#B1A69D"/>
<path d="M113.6 328.8L126.974 284H361.025L374.4 328.8H113.6Z" fill="#F1E4D8"/>
<path d="M113.6 328.8L126.974 340H361.025L374.4 328.8H113.6Z" fill="#38312E"/>
<path d="M113.6 328.8L112.641 328.514L112.453 329.144L112.958 329.566L113.6 328.8ZM126.974 284V283H126.229L126.015 283.714L126.974 284ZM361.025 284L361.984 283.714L361.77 283H361.025V284ZM374.399 328.8L375.041 329.566L375.546 329.144L375.358 328.514L374.399 328.8ZM361.025 340V341H361.389L361.667 340.767L361.025 340ZM126.974 340L126.332 340.767L126.61 341H126.974V340ZM113.6 328.8L114.558 329.086L127.932 284.286L126.974 284L126.015 283.714L112.641 328.514L113.6 328.8ZM126.974 284V285H361.025V284V283H126.974V284ZM361.025 284L360.067 284.286L373.441 329.086L374.399 328.8L375.358 328.514L361.984 283.714L361.025 284ZM374.399 328.8L373.757 328.033L360.383 339.233L361.025 340L361.667 340.767L375.041 329.566L374.399 328.8ZM361.025 340V339H126.974V340V341H361.025V340ZM126.974 340L127.616 339.233L114.242 328.033L113.6 328.8L112.958 329.566L126.332 340.767L126.974 340Z" fill="black"/>
<path d="M254.742 32.7348C254.72 32.7783 254.697 32.8214 254.675 32.8644C254.668 32.8774 254.661 32.8904 254.654 32.9034C254.638 32.9332 254.622 32.9629 254.606 32.9925C254.597 33.0086 254.588 33.0246 254.579 33.0407C254.565 33.0671 254.55 33.0935 254.536 33.1198C254.526 33.137 254.516 33.1541 254.506 33.1712C254.492 33.1962 254.478 33.2212 254.464 33.2462C254.453 33.2638 254.443 33.2813 254.433 33.2988C254.419 33.3231 254.404 33.3475 254.39 33.3718C254.379 33.3894 254.369 33.407 254.358 33.4245C254.344 33.4486 254.329 33.4726 254.314 33.4966C254.304 33.514 254.293 33.5314 254.282 33.5488C254.267 33.5728 254.252 33.5968 254.237 33.6207C254.227 33.6378 254.216 33.6548 254.205 33.6718C254.19 33.6961 254.174 33.7203 254.158 33.7445C254.148 33.7609 254.137 33.7773 254.126 33.7936C254.11 33.8186 254.094 33.8436 254.077 33.8684C254.067 33.8837 254.057 33.899 254.046 33.9142C254.028 33.941 254.01 33.9677 253.992 33.9942C253.983 34.0074 253.974 34.0206 253.965 34.0337C253.943 34.0655 253.921 34.0971 253.899 34.1286C253.893 34.1364 253.888 34.1443 253.882 34.152C253.826 34.2315 253.768 34.3103 253.71 34.3883C253.703 34.3976 253.696 34.4069 253.689 34.4161C253.667 34.4454 253.644 34.4746 253.622 34.5037C253.613 34.5158 253.603 34.5278 253.594 34.5398C253.574 34.566 253.553 34.5921 253.533 34.6182C253.523 34.6313 253.512 34.6442 253.502 34.6573C253.482 34.6822 253.462 34.707 253.442 34.7317C253.431 34.7451 253.42 34.7584 253.409 34.7717C253.39 34.796 253.37 34.8202 253.35 34.8443C253.339 34.8576 253.328 34.8709 253.316 34.8841C253.296 34.9082 253.276 34.9323 253.256 34.9562C253.245 34.9691 253.233 34.982 253.222 34.9949C253.201 35.0192 253.18 35.0435 253.159 35.0676C253.149 35.0798 253.138 35.092 253.127 35.1041C253.105 35.1292 253.083 35.1542 253.061 35.179C253.051 35.19 253.041 35.201 253.031 35.212C253.007 35.2387 252.983 35.2652 252.958 35.2916L252.933 35.3186C252.905 35.3489 252.877 35.3791 252.848 35.4092C252.844 35.414 252.839 35.4189 252.835 35.4238C252.733 35.5311 252.629 35.6364 252.522 35.7397L252.514 35.7477C252.482 35.7788 252.45 35.8097 252.418 35.8405C252.411 35.8464 252.405 35.8524 252.399 35.8584C252.37 35.8858 252.341 35.9131 252.311 35.9402C252.303 35.9475 252.295 35.9548 252.288 35.9621C252.26 35.9878 252.232 36.0134 252.203 36.0389C252.195 36.0466 252.186 36.0544 252.177 36.0621C252.15 36.0871 252.122 36.1119 252.094 36.1366L252.067 36.1597C252.039 36.1845 252.011 36.2091 251.982 36.2337L251.957 36.2553C251.927 36.2805 251.897 36.3056 251.868 36.3305C251.86 36.3367 251.853 36.3429 251.845 36.3491C251.814 36.3755 251.782 36.4017 251.75 36.4277L251.733 36.4412C251.697 36.4702 251.661 36.4991 251.625 36.5277L251.62 36.5318C251.424 36.686 251.224 36.834 251.018 36.9757L251.015 36.9782C250.975 37.0051 250.936 37.0319 250.897 37.0584L250.886 37.0654C250.849 37.0905 250.811 37.1153 250.773 37.1399L250.76 37.1488C250.723 37.1729 250.685 37.1968 250.648 37.2205L250.634 37.2293C250.596 37.2532 250.558 37.2768 250.52 37.3003L250.508 37.3076C250.469 37.3319 250.429 37.356 250.389 37.3799L250.382 37.3838C249.994 37.6155 249.592 37.824 249.179 38.0083L249.177 38.0093C249.131 38.0295 249.086 38.0494 249.04 38.069L249.037 38.0701C248.522 38.2915 247.991 38.4747 247.449 38.6182C245.516 39.1273 243.484 39.1273 241.551 38.6182C240.602 38.3671 239.69 37.995 238.836 37.5108C237.995 37.0337 237.217 36.4528 236.521 35.7817L236.52 35.7808C236.486 35.7477 236.452 35.7145 236.418 35.681L236.417 35.6796C236.383 35.6462 236.349 35.6125 236.316 35.5786L236.315 35.5776C235.67 34.9244 235.105 34.1966 234.633 33.4098L234.632 33.4084C234.608 33.3675 234.583 33.3263 234.559 33.2849L234.558 33.283C234.534 33.2417 234.51 33.2002 234.486 33.1586L234.486 33.1571C234.462 33.1151 234.438 33.073 234.415 33.0306C233.484 31.3362 232.997 29.4335 233 27.5C233 21.1487 238.149 16 244.5 16C250.851 16 256 21.1487 256 27.5C256.003 29.3201 255.571 31.1146 254.742 32.7348ZM244.5 17.3529C238.896 17.3529 234.353 21.896 234.353 27.5C234.352 28.708 234.371 29.7776 234.988 31.0388C236.446 34.019 239.477 34.8182 242.773 34.4391C246.204 34.0444 249.733 32.749 249.733 28.9824C249.734 28.2315 249.58 27.4885 249.281 26.7997C248.982 26.1109 248.544 25.4913 247.994 24.9793C247.808 24.7768 247.598 24.5978 247.368 24.4462C247.237 24.3595 247.099 24.2823 246.957 24.2153C246.944 24.2083 246.932 24.2009 246.92 24.194C246.919 24.1935 246.918 24.1941 246.918 24.1951C246.918 24.196 246.917 24.1967 246.916 24.1963C245.802 23.6906 244.614 23.9361 244.112 24.8412C243.754 25.4887 243.833 26.319 244.246 27.0479C244.258 27.0687 244.243 27.0957 244.219 27.0957C243.694 27.0957 243.18 26.943 242.741 26.6562C242.301 26.3693 241.954 25.9608 241.742 25.4803C241.531 24.9997 241.463 24.468 241.549 23.9499C241.698 23.0408 242.177 22.4123 242.942 21.7331C244.156 20.6536 245.332 20.6002 246.957 20.6388C250.944 20.7337 254.304 23.4919 254.647 27.4889C254.641 21.89 250.1 17.3529 244.5 17.3529Z" fill="white"/>
<path d="M40 448H176" stroke="url(#paint1_linear_552_7877)" stroke-width="2" stroke-linecap="square"/>
<path d="M448 448H312" stroke="url(#paint2_linear_552_7877)" stroke-width="2" stroke-linecap="square"/>
<path d="M40 448V440H32V328H40V296H32V40H40V32C48.6964 32 53.6911 32 60.5 32H62.3903L62.4001 68.4634L90.0001 82.2L117.6 68.4634V32H119.5C146.303 32 167.874 32 200 32V48H208V56H280V48H288V32H448V40H456V296H448V328H456V440H448V448" stroke="#61563B" stroke-width="2"/>
</g>
<defs>
<filter id="filter0_d_552_7877" x="-8" y="-8" width="504" height="504" filterUnits="userSpaceOnUse" color-interpolation-filters="sRGB">
<feFlood flood-opacity="0" result="BackgroundImageFix"/>
<feColorMatrix in="SourceAlpha" type="matrix" values="0 0 0 0 0 0 0 0 0 0 0 0 0 0 0 0 0 0 127 0" result="hardAlpha"/>
<feOffset/>
<feGaussianBlur stdDeviation="16"/>
<feComposite in2="hardAlpha" operator="out"/>
<feColorMatrix type="matrix" values="0 0 0 0 0 0 0 0 0 0 0 0 0 0 0 0 0 0 0.25 0"/>
<feBlend mode="normal" in2="BackgroundImageFix" result="effect1_dropShadow_552_7877"/>
<feBlend mode="normal" in="SourceGraphic" in2="effect1_dropShadow_552_7877" result="shape"/>
</filter>
<linearGradient id="paint0_linear_552_7877" x1="244" y1="0" x2="244" y2="488" gradientUnits="userSpaceOnUse">
<stop stop-color="#24354F"/>
<stop offset="1" stop-color="#1B283B"/>
</linearGradient>
<linearGradient id="paint1_linear_552_7877" x1="176" y1="448.5" x2="40" y2="448.5" gradientUnits="userSpaceOnUse">
<stop stop-color="#B1A69D"/>
<stop offset="1" stop-color="#61563B"/>
</linearGradient>
<linearGradient id="paint2_linear_552_7877" x1="312" y1="448.5" x2="448" y2="448.5" gradientUnits="userSpaceOnUse">
<stop stop-color="#B1A69D"/>
<stop offset="1" stop-color="#61563B"/>
</linearGradient>
<clipPath id="clip0_552_7877">
<rect width="488" height="488" fill="white"/>
</clipPath>
</defs>
</svg>
