<svg width="24" height="24" viewBox="0 0 24 24" fill="none" xmlns="http://www.w3.org/2000/svg">
<path d="M15.12 16.8C15.5839 17.2639 16.3361 17.2639 16.8 16.8C17.2639 16.3361 17.2639 15.5839 16.8 15.12L13.7548 12.0748C13.3996 11.7196 13.2 11.2378 13.2 10.7354V7.2C13.2 6.53726 12.6628 6 12 6C11.3373 6 10.8 6.53726 10.8 7.2V11.6516C10.8 12.182 11.0107 12.6907 11.3858 13.0658L15.12 16.8ZM12 24C10.34 24 8.78003 23.685 7.32003 23.055C5.86003 22.425 4.59003 21.57 3.51003 20.49C2.43003 19.41 1.57503 18.14 0.945031 16.68C0.315031 15.22 3.05176e-05 13.66 3.05176e-05 12C3.05176e-05 10.34 0.315031 8.78 0.945031 7.32C1.57503 5.86 2.43003 4.59 3.51003 3.51C4.59003 2.43 5.86003 1.575 7.32003 0.945C8.78003 0.315 10.34 0 12 0C13.66 0 15.22 0.315 16.68 0.945C18.14 1.575 19.41 2.43 20.49 3.51C21.57 4.59 22.425 5.86 23.055 7.32C23.685 8.78 24 10.34 24 12C24 13.66 23.685 15.22 23.055 16.68C22.425 18.14 21.57 19.41 20.49 20.49C19.41 21.57 18.14 22.425 16.68 23.055C15.22 23.685 13.66 24 12 24ZM12 21.6C14.66 21.6 16.925 20.665 18.795 18.795C20.665 16.925 21.6 14.66 21.6 12C21.6 9.34 20.665 7.075 18.795 5.205C16.925 3.335 14.66 2.4 12 2.4C9.34003 2.4 7.07503 3.335 5.20503 5.205C3.33503 7.075 2.40003 9.34 2.40003 12C2.40003 14.66 3.33503 16.925 5.20503 18.795C7.07503 20.665 9.34003 21.6 12 21.6Z" fill="#FFB703"/>
</svg>
