<svg width="24" height="23" viewBox="0 0 24 23" fill="none" xmlns="http://www.w3.org/2000/svg">
<path d="M23.089 11.7947V12.778C23.089 12.8227 23.0803 12.867 23.0635 12.9083C23.0466 12.9496 23.0219 12.9871 22.9908 13.0187C22.9597 13.0503 22.9227 13.0754 22.8821 13.0925C22.8414 13.1096 22.7978 13.1184 22.7538 13.1184H18.4821L11.4324 21.114C10.9707 21.6376 10.1546 21.638 9.6925 21.1147L1.59046 11.9414C0.736286 10.9312 0.198218 9.68506 0.0450984 8.36242C-0.108021 7.03978 0.13077 5.70081 0.73092 4.51682C1.18852 3.61122 1.86941 2.84161 2.70714 2.28311C3.51126 1.72885 4.46289 1.43748 5.43455 1.44803C6.16443 1.46522 6.88213 1.64175 7.53893 1.96563C8.19572 2.28951 8.77624 2.75316 9.24107 3.32511L10.5268 4.73401L11.8009 3.28254C12.2844 2.70933 12.8839 2.24875 13.5585 1.93218C14.2331 1.6156 14.9669 1.45047 15.71 1.44803C16.6925 1.43985 17.6561 1.72346 18.4821 2.26401C19.3206 2.81971 19.9994 3.59086 20.4497 4.49919C20.9318 5.45522 21.1824 6.51432 21.1807 7.58851C21.1788 8.34816 21.0539 9.10233 20.8108 9.82074H17.7613L16.8367 7.26856C16.7926 7.11673 16.7012 6.98349 16.5764 6.88873C16.4516 6.79396 16.2999 6.74276 16.1441 6.74276C15.9882 6.74276 15.8366 6.79396 15.7117 6.88873C15.5869 6.98349 15.4956 7.11673 15.4514 7.26856L14.5846 9.831C14.5614 9.89716 14.5186 9.9544 14.4621 9.99488C14.4056 10.0354 14.3381 10.0571 14.269 10.0571C14.1998 10.0571 14.1324 10.0354 14.0759 9.99488C14.0194 9.9544 13.9766 9.89716 13.9533 9.831L12.7182 6.41737C12.6744 6.26495 12.5832 6.13106 12.4582 6.0358C12.3331 5.94053 12.1811 5.88904 12.0248 5.88904C11.8685 5.88904 11.7164 5.94053 11.5914 6.0358C11.4664 6.13106 11.3751 6.26495 11.3314 6.41737L10.1656 9.82074H6.56422C6.47545 9.82113 6.39043 9.85713 6.32767 9.92089C6.2649 9.98466 6.22947 10.071 6.22908 10.1612V11.1475C6.22947 11.2376 6.2649 11.324 6.32767 11.3878C6.39043 11.4515 6.47545 11.4875 6.56422 11.4879H10.6365C10.7922 11.4838 10.9427 11.4306 11.0672 11.3357C11.1917 11.2408 11.284 11.1088 11.3314 10.9581L11.6983 9.91026C11.7216 9.8441 11.7644 9.78687 11.8209 9.74641C11.8774 9.70594 11.9448 9.68422 12.014 9.68422C12.0831 9.68422 12.1505 9.70594 12.207 9.74641C12.2636 9.78687 12.3064 9.8441 12.3296 9.91026L13.5474 13.4164C13.605 13.604 13.7333 13.7609 13.9044 13.8527C14.0755 13.9446 14.2753 13.9639 14.4604 13.9065C14.5743 13.8716 14.678 13.8085 14.7622 13.723C14.8464 13.6375 14.9084 13.5321 14.9429 13.4164L15.866 10.6675C15.8877 10.6023 15.9285 10.5452 15.9828 10.5039C16.0371 10.4627 16.1025 10.4391 16.1703 10.4364C16.2381 10.4337 16.3051 10.452 16.3624 10.4888C16.4198 10.5256 16.4648 10.5792 16.4915 10.6426L16.636 10.9757C16.669 11.0815 16.7239 11.1788 16.7968 11.2613C16.8698 11.3438 16.9593 11.4096 17.0592 11.4542H22.7596C22.8475 11.4557 22.9313 11.4923 22.9929 11.556C23.0545 11.6196 23.089 11.7054 23.089 11.7947Z" fill="#99C9DF"/>
</svg>
