<svg width="25" height="26" viewBox="0 0 25 26" fill="none" xmlns="http://www.w3.org/2000/svg">
<path d="M6.94444 20.8C6.17738 20.8 5.55556 20.1782 5.55556 19.4111V6.58889C5.55556 5.82183 6.17738 5.2 6.94444 5.2C7.71151 5.2 8.33333 5.82183 8.33333 6.58889V19.4111C8.33333 20.1782 7.71151 20.8 6.94444 20.8ZM12.5 26C11.7329 26 11.1111 25.3782 11.1111 24.6111V1.38889C11.1111 0.621827 11.7329 0 12.5 0C13.2671 0 13.8889 0.621827 13.8889 1.38889V24.6111C13.8889 25.3782 13.2671 26 12.5 26ZM1.38889 15.6C0.621827 15.6 0 14.9782 0 14.2111V11.7889C0 11.0218 0.621827 10.4 1.38889 10.4C2.15595 10.4 2.77778 11.0218 2.77778 11.7889V14.2111C2.77778 14.9782 2.15595 15.6 1.38889 15.6ZM18.0556 20.8C17.2885 20.8 16.6667 20.1782 16.6667 19.4111V6.58889C16.6667 5.82183 17.2885 5.2 18.0556 5.2C18.8226 5.2 19.4444 5.82183 19.4444 6.58889V19.4111C19.4444 20.1782 18.8226 20.8 18.0556 20.8ZM23.6111 15.6C22.844 15.6 22.2222 14.9782 22.2222 14.2111V11.7889C22.2222 11.0218 22.844 10.4 23.6111 10.4C24.3782 10.4 25 11.0218 25 11.7889V14.2111C25 14.9782 24.3782 15.6 23.6111 15.6Z" fill="#8ECAE6"/>
</svg>
