<svg width="488" height="488" viewBox="0 0 488 488" fill="none" xmlns="http://www.w3.org/2000/svg">
<g clip-path="url(#clip0_552_7902)">
<mask id="mask0_552_7902" style="mask-type:alpha" maskUnits="userSpaceOnUse" x="208" y="24" width="72" height="28">
<rect x="208" y="24" width="72" height="28" fill="#D9D9D9"/>
</mask>
<g mask="url(#mask0_552_7902)">
<rect width="488" height="488" fill="url(#paint0_linear_552_7902)"/>
</g>
<rect x="32" y="312" width="424" height="136" fill="#F9F9F5"/>
<g filter="url(#filter0_d_552_7902)">
<path fill-rule="evenodd" clip-rule="evenodd" d="M464 304H456V320H464V448H456V456H320V464H168V456H32V448H24V320H32V304H24V32H32V24H208V40H216V48H272V40H280V24H456V32H464V304ZM288 32V48H280V56H208V48H200V32H40V40H32V296H40V328H32V440H40V448H176V456H312V448H448V440H456V328H448V296H456V40H448V32H288Z" fill="#D2A275"/>
</g>
<path d="M448 328H456V440H448V448H312V456H176V448H40V440H32V328H40V312H448V328ZM48 336H40V432H48V440H176V432H312V440H440V432H448V336H440V320H48V336Z" fill="#E0DAD2"/>
<path d="M448 328H447V329H448V328ZM456 328H457V327H456V328ZM456 440V441H457V440H456ZM448 440V439H447V440H448ZM448 448V449H449V448H448ZM312 448V447H311V448H312ZM312 456V457H313V456H312ZM176 456H175V457H176V456ZM176 448H177V447H176V448ZM40 448H39V449H40V448ZM40 440H41V439H40V440ZM32 440H31V441H32V440ZM32 328V327H31V328H32ZM40 328V329H41V328H40ZM40 312V311H39V312H40ZM448 312H449V311H448V312ZM48 336V337H49V336H48ZM40 336V335H39V336H40ZM40 432H39V433H40V432ZM48 432H49V431H48V432ZM48 440H47V441H48V440ZM176 440V441H177V440H176ZM176 432V431H175V432H176ZM312 432H313V431H312V432ZM312 440H311V441H312V440ZM440 440V441H441V440H440ZM440 432V431H439V432H440ZM448 432V433H449V432H448ZM448 336H449V335H448V336ZM440 336H439V337H440V336ZM440 320H441V319H440V320ZM48 320V319H47V320H48ZM448 328V329H456V328V327H448V328ZM456 328H455V440H456H457V328H456ZM456 440V439H448V440V441H456V440ZM448 440H447V448H448H449V440H448ZM448 448V447H312V448V449H448V448ZM312 448H311V456H312H313V448H312ZM312 456V455H176V456V457H312V456ZM176 456H177V448H176H175V456H176ZM176 448V447H40V448V449H176V448ZM40 448H41V440H40H39V448H40ZM40 440V439H32V440V441H40V440ZM32 440H33V328H32H31V440H32ZM32 328V329H40V328V327H32V328ZM40 328H41V312H40H39V328H40ZM40 312V313H448V312V311H40V312ZM448 312H447V328H448H449V312H448ZM48 336V335H40V336V337H48V336ZM40 336H39V432H40H41V336H40ZM40 432V433H48V432V431H40V432ZM48 432H47V440H48H49V432H48ZM48 440V441H176V440V439H48V440ZM176 440H177V432H176H175V440H176ZM176 432V433H312V432V431H176V432ZM312 432H311V440H312H313V432H312ZM312 440V441H440V440V439H312V440ZM440 440H441V432H440H439V440H440ZM440 432V433H448V432V431H440V432ZM448 432H449V336H448H447V432H448ZM448 336V335H440V336V337H448V336ZM440 336H441V320H440H439V336H440ZM440 320V319H48V320V321H440V320ZM48 320H47V336H48H49V320H48Z" fill="#B1A69D"/>
<path d="M113.6 328.8L126.974 284H361.025L374.4 328.8H113.6Z" fill="#F1E4D8"/>
<path d="M113.6 328.8L126.974 340H361.025L374.4 328.8H113.6Z" fill="#38312E"/>
<path d="M113.6 328.8L112.641 328.514L112.453 329.144L112.958 329.566L113.6 328.8ZM126.974 284V283H126.229L126.015 283.714L126.974 284ZM361.025 284L361.984 283.714L361.77 283H361.025V284ZM374.399 328.8L375.041 329.566L375.546 329.144L375.358 328.514L374.399 328.8ZM361.025 340V341H361.389L361.667 340.767L361.025 340ZM126.974 340L126.332 340.767L126.61 341H126.974V340ZM113.6 328.8L114.558 329.086L127.932 284.286L126.974 284L126.015 283.714L112.641 328.514L113.6 328.8ZM126.974 284V285H361.025V284V283H126.974V284ZM361.025 284L360.067 284.286L373.441 329.086L374.399 328.8L375.358 328.514L361.984 283.714L361.025 284ZM374.399 328.8L373.757 328.033L360.383 339.233L361.025 340L361.667 340.767L375.041 329.566L374.399 328.8ZM361.025 340V339H126.974V340V341H361.025V340ZM126.974 340L127.616 339.233L114.242 328.033L113.6 328.8L112.958 329.566L126.332 340.767L126.974 340Z" fill="black"/>
<path d="M244 15C244.25 15.5364 244.615 16.0115 245.068 16.3916C245.522 16.7717 246.053 17.0479 246.625 17.2002C247.197 17.3537 247.796 17.3801 248.379 17.2773C248.962 17.1745 249.515 16.9452 250 16.6055C249.948 17.1955 250.026 17.79 250.229 18.3467C250.431 18.9034 250.753 19.4092 251.172 19.8281C251.591 20.247 252.097 20.569 252.653 20.7715C253.21 20.9739 253.804 21.0519 254.395 21C254.055 21.4848 253.827 22.0383 253.724 22.6211C253.621 23.2039 253.646 23.8023 253.799 24.374C253.952 24.9457 254.228 25.4771 254.608 25.9307C254.989 26.3843 255.464 26.7495 256 27C255.463 27.2499 254.987 27.6148 254.606 28.0684C254.226 28.5218 253.95 29.0532 253.797 29.625C253.644 30.197 253.617 30.7959 253.721 31.3789C253.824 31.9619 254.054 32.5155 254.395 33C253.804 32.9481 253.21 33.0261 252.653 33.2285C252.097 33.431 251.591 33.753 251.172 34.1719C250.753 34.5908 250.431 35.0966 250.229 35.6533C250.026 36.21 249.948 36.8045 250 37.3945C249.515 37.0542 248.962 36.8241 248.379 36.7207C247.796 36.6173 247.197 36.6439 246.625 36.7969C246.053 36.9499 245.522 37.226 245.068 37.6064C244.615 37.9872 244.25 38.4631 244 39C243.749 38.4637 243.384 37.9886 242.931 37.6084C242.477 37.2283 241.946 36.9518 241.374 36.7988C240.802 36.6459 240.204 36.6207 239.621 36.7236C239.038 36.8266 238.485 37.0551 238 37.3945C238.052 36.8051 237.974 36.2113 237.771 35.6553C237.569 35.0992 237.248 34.5942 236.829 34.1758C236.411 33.7573 235.906 33.4356 235.35 33.2334C234.794 33.0312 234.2 32.953 233.61 33.0049C233.95 32.5198 234.179 31.9658 234.281 31.3828C234.384 30.7999 234.357 30.2015 234.204 29.6299C234.051 29.058 233.773 28.5267 233.393 28.0732C233.012 27.6198 232.537 27.2549 232 27.0049C232.537 26.7555 233.013 26.3917 233.395 25.9385C233.776 25.4851 234.053 24.953 234.206 24.3809C234.36 23.8088 234.386 23.2102 234.283 22.627C234.18 22.0437 233.951 21.4897 233.61 21.0049C234.2 21.056 234.794 20.9772 235.35 20.7744C235.906 20.5716 236.411 20.2498 236.829 19.8311C237.247 19.4123 237.569 18.9068 237.771 18.3506C237.974 17.7943 238.052 17.2 238 16.6104C238.485 16.9504 239.038 17.1794 239.621 17.2822C240.204 17.385 240.803 17.359 241.375 17.2051C241.947 17.0519 242.479 16.7745 242.933 16.3936C243.386 16.0126 243.75 15.537 244 15ZM244 19.5C242.011 19.5 240.103 20.2898 238.696 21.6963C237.29 23.1028 236.5 25.0109 236.5 27C236.5 28.9891 237.29 30.8972 238.696 32.3037C240.103 33.7102 242.011 34.5 244 34.5C245.989 34.5 247.897 33.7102 249.304 32.3037C250.71 30.8972 251.5 28.9891 251.5 27C251.5 25.0109 250.71 23.1028 249.304 21.6963C247.897 20.2898 245.989 19.5 244 19.5Z" fill="white"/>
<circle cx="244" cy="27" r="7.25" stroke="white" stroke-width="1.5"/>
<path d="M40 448H176" stroke="url(#paint1_linear_552_7902)" stroke-width="2" stroke-linecap="square"/>
<path d="M448 448H312" stroke="url(#paint2_linear_552_7902)" stroke-width="2" stroke-linecap="square"/>
<path d="M40 448V440H32V328H40V296H32V40H40V32C48.6964 32 53.6911 32 60.5 32H62.3903L62.4001 68.4634L90.0001 82.2L117.6 68.4634V32H119.5C146.303 32 167.874 32 200 32V48H208V56H280V48H288V32H448V40H456V296H448V328H456V440H448V448" stroke="#61563B" stroke-width="2"/>
</g>
<defs>
<filter id="filter0_d_552_7902" x="-8" y="-8" width="504" height="504" filterUnits="userSpaceOnUse" color-interpolation-filters="sRGB">
<feFlood flood-opacity="0" result="BackgroundImageFix"/>
<feColorMatrix in="SourceAlpha" type="matrix" values="0 0 0 0 0 0 0 0 0 0 0 0 0 0 0 0 0 0 127 0" result="hardAlpha"/>
<feOffset/>
<feGaussianBlur stdDeviation="16"/>
<feComposite in2="hardAlpha" operator="out"/>
<feColorMatrix type="matrix" values="0 0 0 0 0 0 0 0 0 0 0 0 0 0 0 0 0 0 0.25 0"/>
<feBlend mode="normal" in2="BackgroundImageFix" result="effect1_dropShadow_552_7902"/>
<feBlend mode="normal" in="SourceGraphic" in2="effect1_dropShadow_552_7902" result="shape"/>
</filter>
<linearGradient id="paint0_linear_552_7902" x1="244" y1="0" x2="244" y2="488" gradientUnits="userSpaceOnUse">
<stop stop-color="#8E4233"/>
<stop offset="1" stop-color="#613626"/>
</linearGradient>
<linearGradient id="paint1_linear_552_7902" x1="176" y1="448.5" x2="40" y2="448.5" gradientUnits="userSpaceOnUse">
<stop stop-color="#B1A69D"/>
<stop offset="1" stop-color="#61563B"/>
</linearGradient>
<linearGradient id="paint2_linear_552_7902" x1="312" y1="448.5" x2="448" y2="448.5" gradientUnits="userSpaceOnUse">
<stop stop-color="#B1A69D"/>
<stop offset="1" stop-color="#61563B"/>
</linearGradient>
<clipPath id="clip0_552_7902">
<rect width="488" height="488" fill="white"/>
</clipPath>
</defs>
</svg>
