<svg width="488" height="488" viewBox="0 0 488 488" fill="none" xmlns="http://www.w3.org/2000/svg">
<g clip-path="url(#clip0_552_7847)">
<mask id="mask0_552_7847" style="mask-type:alpha" maskUnits="userSpaceOnUse" x="208" y="24" width="72" height="28">
<rect x="208" y="24" width="72" height="28" fill="#D9D9D9"/>
</mask>
<g mask="url(#mask0_552_7847)">
<rect width="488" height="488" fill="url(#paint0_linear_552_7847)"/>
</g>
<rect x="32" y="312" width="424" height="136" fill="#F9F9F5"/>
<g filter="url(#filter0_d_552_7847)">
<path fill-rule="evenodd" clip-rule="evenodd" d="M464 304H456V320H464V448H456V456H320V464H168V456H32V448H24V320H32V304H24V32H32V24H208V40H216V48H272V40H280V24H456V32H464V304ZM288 32V48H280V56H208V48H200V32H40V40H32V296H40V328H32V440H40V448H176V456H312V448H448V440H456V328H448V296H456V40H448V32H288Z" fill="#FFEDBE"/>
</g>
<path d="M448 328H456V440H448V448H312V456H176V448H40V440H32V328H40V312H448V328ZM48 336H40V432H48V440H176V432H312V440H440V432H448V336H440V320H48V336Z" fill="#E0DAD2"/>
<path d="M448 328H447V329H448V328ZM456 328H457V327H456V328ZM456 440V441H457V440H456ZM448 440V439H447V440H448ZM448 448V449H449V448H448ZM312 448V447H311V448H312ZM312 456V457H313V456H312ZM176 456H175V457H176V456ZM176 448H177V447H176V448ZM40 448H39V449H40V448ZM40 440H41V439H40V440ZM32 440H31V441H32V440ZM32 328V327H31V328H32ZM40 328V329H41V328H40ZM40 312V311H39V312H40ZM448 312H449V311H448V312ZM48 336V337H49V336H48ZM40 336V335H39V336H40ZM40 432H39V433H40V432ZM48 432H49V431H48V432ZM48 440H47V441H48V440ZM176 440V441H177V440H176ZM176 432V431H175V432H176ZM312 432H313V431H312V432ZM312 440H311V441H312V440ZM440 440V441H441V440H440ZM440 432V431H439V432H440ZM448 432V433H449V432H448ZM448 336H449V335H448V336ZM440 336H439V337H440V336ZM440 320H441V319H440V320ZM48 320V319H47V320H48ZM448 328V329H456V328V327H448V328ZM456 328H455V440H456H457V328H456ZM456 440V439H448V440V441H456V440ZM448 440H447V448H448H449V440H448ZM448 448V447H312V448V449H448V448ZM312 448H311V456H312H313V448H312ZM312 456V455H176V456V457H312V456ZM176 456H177V448H176H175V456H176ZM176 448V447H40V448V449H176V448ZM40 448H41V440H40H39V448H40ZM40 440V439H32V440V441H40V440ZM32 440H33V328H32H31V440H32ZM32 328V329H40V328V327H32V328ZM40 328H41V312H40H39V328H40ZM40 312V313H448V312V311H40V312ZM448 312H447V328H448H449V312H448ZM48 336V335H40V336V337H48V336ZM40 336H39V432H40H41V336H40ZM40 432V433H48V432V431H40V432ZM48 432H47V440H48H49V432H48ZM48 440V441H176V440V439H48V440ZM176 440H177V432H176H175V440H176ZM176 432V433H312V432V431H176V432ZM312 432H311V440H312H313V432H312ZM312 440V441H440V440V439H312V440ZM440 440H441V432H440H439V440H440ZM440 432V433H448V432V431H440V432ZM448 432H449V336H448H447V432H448ZM448 336V335H440V336V337H448V336ZM440 336H441V320H440H439V336H440ZM440 320V319H48V320V321H440V320ZM48 320H47V336H48H49V320H48Z" fill="#B1A69D"/>
<path d="M113.6 328.8L126.974 284H361.025L374.4 328.8H113.6Z" fill="#F1E4D8"/>
<path d="M113.6 328.8L126.974 340H361.025L374.4 328.8H113.6Z" fill="#38312E"/>
<path d="M113.6 328.8L112.641 328.514L112.453 329.144L112.958 329.566L113.6 328.8ZM126.974 284V283H126.229L126.015 283.714L126.974 284ZM361.025 284L361.984 283.714L361.77 283H361.025V284ZM374.399 328.8L375.041 329.566L375.546 329.144L375.358 328.514L374.399 328.8ZM361.025 340V341H361.389L361.667 340.767L361.025 340ZM126.974 340L126.332 340.767L126.61 341H126.974V340ZM113.6 328.8L114.558 329.086L127.932 284.286L126.974 284L126.015 283.714L112.641 328.514L113.6 328.8ZM126.974 284V285H361.025V284V283H126.974V284ZM361.025 284L360.067 284.286L373.441 329.086L374.399 328.8L375.358 328.514L361.984 283.714L361.025 284ZM374.399 328.8L373.757 328.033L360.383 339.233L361.025 340L361.667 340.767L375.041 329.566L374.399 328.8ZM361.025 340V339H126.974V340V341H361.025V340ZM126.974 340L127.616 339.233L114.242 328.033L113.6 328.8L112.958 329.566L126.332 340.767L126.974 340Z" fill="black"/>
<path d="M40 448H176" stroke="url(#paint1_linear_552_7847)" stroke-width="2" stroke-linecap="square"/>
<path d="M448 448H312" stroke="url(#paint2_linear_552_7847)" stroke-width="2" stroke-linecap="square"/>
<path d="M40 448V440H32V328H40V296H32V40H40V32C48.6964 32 53.6911 32 60.5 32H62.3903L62.4001 68.4634L90.0001 82.2L117.6 68.4634V32H119.5C146.303 32 167.874 32 200 32V48H208V56H280V48H288V32H448V40H456V296H448V328H456V440H448V448" stroke="#61563B" stroke-width="2"/>
<path d="M244 14.2031C244.706 14.2031 245.28 14.7773 245.28 15.4828V16.7139L246.117 16.2712C246.742 15.9398 247.517 16.1798 247.845 16.8053C248.174 17.4309 247.936 18.205 247.311 18.5335L245.277 19.6075V22.0412C246.191 22.2754 247.008 22.7582 247.651 23.4123L249.759 22.1955L249.673 19.8989C249.647 19.1933 250.199 18.5992 250.904 18.5735C251.61 18.5478 252.204 19.0991 252.23 19.8046L252.264 20.7501L253.329 20.136C253.941 19.7818 254.723 19.9931 255.078 20.6044C255.432 21.2157 255.22 21.9984 254.609 22.3526L253.544 22.9667L254.346 23.4694C254.946 23.8465 255.126 24.6349 254.749 25.2347C254.372 25.8317 253.584 26.0145 252.984 25.6375L251.036 24.4149L248.933 25.6289C249.053 26.0659 249.119 26.5258 249.119 27C249.119 27.4742 249.053 27.9341 248.933 28.3711L251.041 29.5879L252.989 28.3654C253.586 27.9883 254.378 28.1711 254.755 28.7681C255.132 29.368 254.949 30.1564 254.352 30.5334L253.549 31.0362L254.615 31.6503C255.226 32.0045 255.437 32.7872 255.083 33.3984C254.729 34.0097 253.946 34.2211 253.335 33.8669L252.27 33.2528L252.235 34.1982C252.21 34.9038 251.616 35.4551 250.91 35.4294C250.204 35.4037 249.653 34.8095 249.679 34.104L249.765 31.8074L247.656 30.5906C247.014 31.2447 246.2 31.7274 245.283 31.9616V34.3953L247.317 35.4694C247.942 35.8007 248.179 36.5748 247.851 37.1975C247.519 37.8231 246.745 38.0602 246.123 37.7317L245.286 37.2889V38.52C245.286 39.2256 244.711 39.7997 244.006 39.7997C243.3 39.7997 242.726 39.2256 242.726 38.52V37.2889L241.889 37.7317C241.264 38.063 240.49 37.8231 240.161 37.1975C239.83 36.5719 240.07 35.7979 240.695 35.4694L242.729 34.3953V31.9616C241.815 31.7274 240.998 31.2447 240.355 30.5906L238.247 31.8074L238.333 34.104C238.359 34.8095 237.807 35.4037 237.102 35.4294C236.396 35.4551 235.802 34.9038 235.777 34.1982L235.742 33.2528L234.677 33.8669C234.066 34.2211 233.283 34.0097 232.929 33.3984C232.574 32.7872 232.786 32.0045 233.397 31.6503L234.463 31.0362L233.66 30.5334C233.06 30.1564 232.88 29.368 233.257 28.7681C233.634 28.1711 234.423 27.9883 235.022 28.3654L236.971 29.5879L239.079 28.3711C238.959 27.9341 238.893 27.4742 238.893 27C238.893 26.5258 238.959 26.0659 239.079 25.6289L236.971 24.4121L235.022 25.6346C234.423 26.0117 233.634 25.8289 233.257 25.2319C232.88 24.632 233.063 23.8436 233.66 23.4666L234.463 22.9638L233.397 22.3497C232.774 21.9955 232.566 21.2128 232.917 20.6016C233.271 19.9903 234.054 19.7789 234.665 20.1331L235.731 20.7472L235.765 19.8018C235.791 19.0962 236.385 18.5449 237.091 18.5706C237.796 18.5963 238.347 19.1905 238.322 19.896L238.236 22.1926L240.344 23.4094C240.987 22.7553 241.801 22.2726 242.718 22.0384V19.6047L240.687 18.5335C240.061 18.2021 239.824 17.4281 240.153 16.8053C240.484 16.1798 241.258 15.9427 241.881 16.2712L242.718 16.7139V15.4828C242.721 14.7773 243.295 14.2031 244 14.2031ZM244 29.5594C245.414 29.5594 246.56 28.4139 246.56 27C246.56 25.5861 245.414 24.4406 244 24.4406C242.586 24.4406 241.441 25.5861 241.441 27C241.441 28.4139 242.586 29.5594 244 29.5594Z" fill="white"/>
</g>
<defs>
<filter id="filter0_d_552_7847" x="-8" y="-8" width="504" height="504" filterUnits="userSpaceOnUse" color-interpolation-filters="sRGB">
<feFlood flood-opacity="0" result="BackgroundImageFix"/>
<feColorMatrix in="SourceAlpha" type="matrix" values="0 0 0 0 0 0 0 0 0 0 0 0 0 0 0 0 0 0 127 0" result="hardAlpha"/>
<feOffset/>
<feGaussianBlur stdDeviation="16"/>
<feComposite in2="hardAlpha" operator="out"/>
<feColorMatrix type="matrix" values="0 0 0 0 0 0 0 0 0 0 0 0 0 0 0 0 0 0 0.25 0"/>
<feBlend mode="normal" in2="BackgroundImageFix" result="effect1_dropShadow_552_7847"/>
<feBlend mode="normal" in="SourceGraphic" in2="effect1_dropShadow_552_7847" result="shape"/>
</filter>
<linearGradient id="paint0_linear_552_7847" x1="244" y1="0" x2="244" y2="488" gradientUnits="userSpaceOnUse">
<stop stop-color="#E7D09A"/>
<stop offset="1" stop-color="#E7C472"/>
</linearGradient>
<linearGradient id="paint1_linear_552_7847" x1="176" y1="448.5" x2="40" y2="448.5" gradientUnits="userSpaceOnUse">
<stop stop-color="#B1A69D"/>
<stop offset="1" stop-color="#61563B"/>
</linearGradient>
<linearGradient id="paint2_linear_552_7847" x1="312" y1="448.5" x2="448" y2="448.5" gradientUnits="userSpaceOnUse">
<stop stop-color="#B1A69D"/>
<stop offset="1" stop-color="#61563B"/>
</linearGradient>
<clipPath id="clip0_552_7847">
<rect width="488" height="488" fill="white"/>
</clipPath>
</defs>
</svg>
