<svg width="488" height="488" viewBox="0 0 488 488" fill="none" xmlns="http://www.w3.org/2000/svg">
<g clip-path="url(#clip0_552_7794)">
<mask id="mask0_552_7794" style="mask-type:alpha" maskUnits="userSpaceOnUse" x="208" y="24" width="72" height="28">
<rect x="208" y="24" width="72" height="28" fill="#D9D9D9"/>
</mask>
<g mask="url(#mask0_552_7794)">
<rect width="488" height="488" fill="url(#paint0_linear_552_7794)"/>
</g>
<rect x="32" y="312" width="424" height="136" fill="#F9F9F5"/>
<g filter="url(#filter0_d_552_7794)">
<path fill-rule="evenodd" clip-rule="evenodd" d="M464 304H456V320H464V448H456V456H320V464H168V456H32V448H24V320H32V304H24V32H32V24H208V40H216V48H272V40H280V24H456V32H464V304ZM288 32V48H280V56H208V48H200V32H40V40H32V296H40V328H32V440H40V448H176V456H312V448H448V440H456V328H448V296H456V40H448V32H288Z" fill="#7FD03C"/>
</g>
<path d="M448 328H456V440H448V448H312V456H176V448H40V440H32V328H40V312H448V328ZM48 336H40V432H48V440H176V432H312V440H440V432H448V336H440V320H48V336Z" fill="#E0DAD2"/>
<path d="M448 328H447V329H448V328ZM456 328H457V327H456V328ZM456 440V441H457V440H456ZM448 440V439H447V440H448ZM448 448V449H449V448H448ZM312 448V447H311V448H312ZM312 456V457H313V456H312ZM176 456H175V457H176V456ZM176 448H177V447H176V448ZM40 448H39V449H40V448ZM40 440H41V439H40V440ZM32 440H31V441H32V440ZM32 328V327H31V328H32ZM40 328V329H41V328H40ZM40 312V311H39V312H40ZM448 312H449V311H448V312ZM48 336V337H49V336H48ZM40 336V335H39V336H40ZM40 432H39V433H40V432ZM48 432H49V431H48V432ZM48 440H47V441H48V440ZM176 440V441H177V440H176ZM176 432V431H175V432H176ZM312 432H313V431H312V432ZM312 440H311V441H312V440ZM440 440V441H441V440H440ZM440 432V431H439V432H440ZM448 432V433H449V432H448ZM448 336H449V335H448V336ZM440 336H439V337H440V336ZM440 320H441V319H440V320ZM48 320V319H47V320H48ZM448 328V329H456V328V327H448V328ZM456 328H455V440H456H457V328H456ZM456 440V439H448V440V441H456V440ZM448 440H447V448H448H449V440H448ZM448 448V447H312V448V449H448V448ZM312 448H311V456H312H313V448H312ZM312 456V455H176V456V457H312V456ZM176 456H177V448H176H175V456H176ZM176 448V447H40V448V449H176V448ZM40 448H41V440H40H39V448H40ZM40 440V439H32V440V441H40V440ZM32 440H33V328H32H31V440H32ZM32 328V329H40V328V327H32V328ZM40 328H41V312H40H39V328H40ZM40 312V313H448V312V311H40V312ZM448 312H447V328H448H449V312H448ZM48 336V335H40V336V337H48V336ZM40 336H39V432H40H41V336H40ZM40 432V433H48V432V431H40V432ZM48 432H47V440H48H49V432H48ZM48 440V441H176V440V439H48V440ZM176 440H177V432H176H175V440H176ZM176 432V433H312V432V431H176V432ZM312 432H311V440H312H313V432H312ZM312 440V441H440V440V439H312V440ZM440 440H441V432H440H439V440H440ZM440 432V433H448V432V431H440V432ZM448 432H449V336H448H447V432H448ZM448 336V335H440V336V337H448V336ZM440 336H441V320H440H439V336H440ZM440 320V319H48V320V321H440V320ZM48 320H47V336H48H49V320H48Z" fill="#B1A69D"/>
<path d="M113.6 328.8L126.974 284H361.025L374.4 328.8H113.6Z" fill="#F1E4D8"/>
<path d="M113.6 328.8L126.974 340H361.025L374.4 328.8H113.6Z" fill="#38312E"/>
<path d="M113.6 328.8L112.641 328.514L112.453 329.144L112.958 329.566L113.6 328.8ZM126.974 284V283H126.229L126.015 283.714L126.974 284ZM361.025 284L361.984 283.714L361.77 283H361.025V284ZM374.399 328.8L375.041 329.566L375.546 329.144L375.358 328.514L374.399 328.8ZM361.025 340V341H361.389L361.667 340.767L361.025 340ZM126.974 340L126.332 340.767L126.61 341H126.974V340ZM113.6 328.8L114.558 329.086L127.932 284.286L126.974 284L126.015 283.714L112.641 328.514L113.6 328.8ZM126.974 284V285H361.025V284V283H126.974V284ZM361.025 284L360.067 284.286L373.441 329.086L374.399 328.8L375.358 328.514L361.984 283.714L361.025 284ZM374.399 328.8L373.757 328.033L360.383 339.233L361.025 340L361.667 340.767L375.041 329.566L374.399 328.8ZM361.025 340V339H126.974V340V341H361.025V340ZM126.974 340L127.616 339.233L114.242 328.033L113.6 328.8L112.958 329.566L126.332 340.767L126.974 340Z" fill="black"/>
<path d="M255.233 34.935H232.75C232.603 34.9341 232.46 34.8901 232.338 34.8085C232.216 34.7268 232.12 34.6111 232.063 34.4757C232.006 34.3403 231.991 34.1912 232.018 34.0468C232.045 33.9025 232.114 33.7694 232.216 33.6639L237.468 28.2679H234.59C234.444 28.2747 234.298 28.2383 234.172 28.1631C234.046 28.088 233.945 27.9775 233.881 27.8453C233.817 27.7131 233.794 27.5651 233.813 27.4196C233.833 27.2741 233.894 27.1375 233.991 27.0269L243.428 15.2636C243.501 15.1808 243.59 15.1144 243.69 15.069C243.791 15.0235 243.899 15 244.009 15C244.12 15 244.228 15.0235 244.329 15.069C244.429 15.1144 244.518 15.1808 244.591 15.2636L253.962 27.0448C254.059 27.1555 254.12 27.2921 254.14 27.4376C254.159 27.5831 254.136 27.7311 254.072 27.8633C254.008 27.9955 253.907 28.106 253.781 28.1811C253.655 28.2563 253.509 28.2927 253.363 28.2859H250.485L255.737 33.6819C255.839 33.7874 255.908 33.9205 255.935 34.0648C255.962 34.2091 255.947 34.3583 255.89 34.4937C255.833 34.6291 255.737 34.7448 255.615 34.8264C255.493 34.9081 255.35 34.9521 255.203 34.953L255.233 34.935ZM247.823 38.2506C247.823 38.1521 247.803 38.0547 247.766 37.9638C247.728 37.8728 247.673 37.7902 247.603 37.7206C247.534 37.651 247.451 37.5958 247.36 37.5582C247.269 37.5205 247.172 37.5011 247.073 37.5011H240.91C240.711 37.5011 240.52 37.5801 240.38 37.7206C240.239 37.8612 240.16 38.0518 240.16 38.2506C240.16 38.4493 240.239 38.6399 240.38 38.7805C240.52 38.921 240.711 39 240.91 39H247.073C247.272 39 247.463 38.921 247.603 38.7805C247.744 38.6399 247.823 38.4493 247.823 38.2506ZM246.198 30.6782C246.198 30.5797 246.178 30.4823 246.141 30.3914C246.103 30.3004 246.048 30.2178 245.978 30.1482C245.909 30.0786 245.826 30.0234 245.735 29.9858C245.644 29.9481 245.547 29.9287 245.448 29.9287H242.541C242.342 29.9287 242.151 30.0077 242.011 30.1482C241.87 30.2888 241.791 30.4794 241.791 30.6782C241.791 30.8769 241.87 31.0675 242.011 31.2081C242.151 31.3486 242.342 31.4276 242.541 31.4276H245.448C245.647 31.4276 245.838 31.3486 245.978 31.2081C246.119 31.0675 246.198 30.8769 246.198 30.6782ZM244.741 34.935H243.242V38.94H244.741V34.935Z" fill="white"/>
<path d="M40 448H176" stroke="url(#paint1_linear_552_7794)" stroke-width="2" stroke-linecap="square"/>
<path d="M448 448H312" stroke="url(#paint2_linear_552_7794)" stroke-width="2" stroke-linecap="square"/>
<path d="M40 448V440H32V328H40V296H32V40H40V32C48.6964 32 53.6911 32 60.5 32H62.3903L62.4001 68.4634L90.0001 82.2L117.6 68.4634V32H119.5C146.303 32 167.874 32 200 32V48H208V56H280V48H288V32H448V40H456V296H448V328H456V440H448V448" stroke="#61563B" stroke-width="2"/>
</g>
<defs>
<filter id="filter0_d_552_7794" x="-8" y="-8" width="504" height="504" filterUnits="userSpaceOnUse" color-interpolation-filters="sRGB">
<feFlood flood-opacity="0" result="BackgroundImageFix"/>
<feColorMatrix in="SourceAlpha" type="matrix" values="0 0 0 0 0 0 0 0 0 0 0 0 0 0 0 0 0 0 127 0" result="hardAlpha"/>
<feOffset/>
<feGaussianBlur stdDeviation="16"/>
<feComposite in2="hardAlpha" operator="out"/>
<feColorMatrix type="matrix" values="0 0 0 0 0 0 0 0 0 0 0 0 0 0 0 0 0 0 0.25 0"/>
<feBlend mode="normal" in2="BackgroundImageFix" result="effect1_dropShadow_552_7794"/>
<feBlend mode="normal" in="SourceGraphic" in2="effect1_dropShadow_552_7794" result="shape"/>
</filter>
<linearGradient id="paint0_linear_552_7794" x1="244" y1="0" x2="244" y2="488" gradientUnits="userSpaceOnUse">
<stop stop-color="#518627"/>
<stop offset="1" stop-color="#406B20"/>
</linearGradient>
<linearGradient id="paint1_linear_552_7794" x1="176" y1="448.5" x2="40" y2="448.5" gradientUnits="userSpaceOnUse">
<stop stop-color="#B1A69D"/>
<stop offset="1" stop-color="#61563B"/>
</linearGradient>
<linearGradient id="paint2_linear_552_7794" x1="312" y1="448.5" x2="448" y2="448.5" gradientUnits="userSpaceOnUse">
<stop stop-color="#B1A69D"/>
<stop offset="1" stop-color="#61563B"/>
</linearGradient>
<clipPath id="clip0_552_7794">
<rect width="488" height="488" fill="white"/>
</clipPath>
</defs>
</svg>
