<svg width="23" height="23" viewBox="0 0 23 23" fill="none" xmlns="http://www.w3.org/2000/svg">
<path d="M21.278 4.79624C18.059 2.89056 13.2018 -0.0175822 6.7589 2.88581C2.15901 4.99591 -0.543381 9.88057 0.091994 14.9369C0.138404 15.406 0.512447 15.7733 0.978425 15.8075C1.49313 15.832 1.93005 15.4309 1.95414 14.9115C1.95652 14.8603 1.95475 14.809 1.94884 14.7581C1.39335 10.5093 3.65109 6.39197 7.51483 4.60817C12.2271 2.49519 15.8614 3.87876 19.3839 5.87406C19.4236 5.8947 19.4536 5.93019 19.4674 5.97282C19.4812 6.01545 19.4776 6.06179 19.4575 6.1018C19.4443 6.12787 19.4246 6.15008 19.4002 6.16625C19.3759 6.18242 19.3478 6.19201 19.3187 6.19407C16.7406 6.42773 14.2094 7.0299 11.8023 7.98218C8.71387 9.22917 7.06233 10.4714 6.02187 11.5819C4.39078 13.099 3.26887 15.0906 2.81195 17.2805C2.52288 18.3631 3.10522 19.4883 4.15088 19.8687C5.38485 20.2389 6.66512 20.4322 7.95341 20.4427C11.3919 20.4427 14.2284 18.8897 15.8847 15.9771C16.3734 15.0932 16.8141 14.1837 17.205 13.2525C18.0774 11.276 18.7633 9.70907 21.222 7.94914C21.7909 7.54581 22.1206 6.88082 22.0991 6.17992C22.0806 5.60654 21.7703 5.08354 21.278 4.79624Z" fill="#99C9DF"/>
</svg>
