<svg width="23" height="23" viewBox="0 0 23 23" fill="none" xmlns="http://www.w3.org/2000/svg">
<path d="M11.05 1.10498C5.54201 1.10498 1.10501 5.54198 1.10501 11.05C1.10501 16.558 5.59301 20.995 11.05 20.995C16.558 20.995 20.995 16.558 20.995 11.05C20.995 5.54198 16.507 1.10498 11.05 1.10498ZM17.527 14.059C17.374 14.365 17.119 14.518 16.813 14.518C16.711 14.518 16.609 14.518 16.507 14.467L10.642 11.815C10.387 11.713 10.183 11.407 10.183 11.101V5.59298C10.183 5.18498 10.54 4.82798 10.948 4.82798C11.356 4.82798 11.713 5.18498 11.713 5.59298V10.642L17.119 13.09C17.527 13.243 17.68 13.651 17.527 14.059Z" fill="#99C9DF"/>
</svg>
