<svg width="23" height="23" viewBox="0 0 23 23" fill="none" xmlns="http://www.w3.org/2000/svg">
<path d="M20.9322 19.2634L19.0413 6.95193C18.953 6.40436 18.4935 5.99809 17.928 5.99809H14.0402V4.89022C14.0402 4.58508 14.2876 4.33772 14.5927 4.33772H15.7274C16.3376 4.33772 16.8324 3.84299 16.8324 3.23272V2.65188C16.8324 2.0416 16.3376 1.54688 15.7274 1.54688H6.75114C6.14087 1.54688 5.64614 2.0416 5.64614 2.65188V3.23272C5.64614 3.84299 6.14087 4.33772 6.75114 4.33772H7.88578C8.19092 4.33772 8.43828 4.58508 8.43828 4.89022V6.01576H4.17939C3.63156 6.01576 3.15442 6.42202 3.06607 6.96959L1.17519 19.2634C1.12217 19.5814 1.21053 19.917 1.44027 20.1643C1.65233 20.4116 1.97042 20.5529 2.28851 20.5529H19.8189C20.137 20.5529 20.4551 20.4116 20.6671 20.1643C20.8792 19.917 20.9675 19.599 20.9322 19.2634ZM14.429 11.2618C14.429 11.3678 14.3937 11.4561 14.323 11.5268C14.2523 11.5974 14.1639 11.6328 14.0579 11.6328H11.7959V16.5079C11.7959 16.6139 11.7606 16.7022 11.6899 16.7729C11.6192 16.8435 11.5308 16.8789 11.4248 16.8789H10.6649C10.5589 16.8789 10.4705 16.8435 10.3998 16.7729C10.3292 16.7022 10.2938 16.6139 10.2938 16.5079V11.6328H8.0495C7.94347 11.6328 7.85511 11.5974 7.78442 11.5268C7.71374 11.4561 7.67839 11.3678 7.67839 11.2618V10.5023C7.67839 10.2903 7.83744 10.1314 8.0495 10.1314H14.0579C14.27 10.1314 14.429 10.2903 14.429 10.5023V11.2618Z" fill="#99C9DF"/>
</svg>
